<?xml version="1.0" encoding="UTF-8"?>
<!DOCTYPE svg PUBLIC "-//W3C//DTD SVG 1.1//EN" "http://www.w3.org/Graphics/SVG/1.1/DTD/svg11.dtd">
<!-- Creator: CorelDRAW -->
<svg xmlns="http://www.w3.org/2000/svg" xml:space="preserve" width="3.87624in" height="3.4126in" version="1.1" style="shape-rendering:geometricPrecision; text-rendering:geometricPrecision; image-rendering:optimizeQuality; fill-rule:evenodd; clip-rule:evenodd"
viewBox="0 0 3876.24 3412.6"
 xmlns:xlink="http://www.w3.org/1999/xlink">
 <defs>
  <style type="text/css">
   <![CDATA[
    .fil2 {fill:#333333;fill-rule:nonzero}
    .fil0 {fill:url(#id0)}
    .fil1 {fill:url(#id1);fill-rule:nonzero}
   ]]>
  </style>
  <linearGradient id="id0" gradientUnits="userSpaceOnUse" x1="820.48" y1="1173.02" x2="3055.98" y2="1173.02">
   <stop offset="0" style="stop-opacity:1; stop-color:#A11E1E"/>
   <stop offset="1" style="stop-opacity:1; stop-color:#CC4A4A"/>
  </linearGradient>
  <linearGradient id="id1" gradientUnits="objectBoundingBox" xlink:href="#id0" x1="9.04919e-05%" y1="49.998%" x2="100%" y2="49.998%">
  </linearGradient>
 </defs>
 <g id="Layer_x0020_1">
  <metadata id="CorelCorpID_0Corel-Layer"/>
  <path id="_21WF" class="fil0" d="M1937.96 512.86l0.09 0 0.44 0 0 94.87 -0.27 -0.11 -0.26 0.11 0 565.21 -127.76 -134.11c61.74,-502.15 30.02,-243.85 48.9,-397.34l-399.23 170.82c1.14,88.78 7.22,180.85 22.47,271.23 -30.61,4.15 25.7,-3.5 -90.8,12.3 -17.46,-103.73 -23.65,-209.7 -23.65,-312.47 0,-18.22 10.92,-34.67 27.66,-41.84l476.35 -204.15 66.07 -537.37 0 512.86zm0.19 1833.18l0.02 -1172.96 -127.77 134.15c-142.55,-19.34 126.02,17.04 -281.09,-38.11 22.76,64.58 52.44,126.22 90.85,182.75 65.21,95.99 145.65,164.33 236.04,227.24l14.69 119.41c-126.81,-82.76 -237.42,-165.12 -325.99,-295.52 -51.73,-76.17 -89.29,-159.89 -116.13,-247.5l-608.3 -82.41 1117.72 0 -0.02 0.01 0.08 0.07 127.72 -134.06 328.11 44.42c15.26,-90.38 21.35,-182.45 22.48,-271.23l-399.22 -170.82 -12.8 -104.1 476.33 204.15c16.76,7.19 27.66,23.61 27.66,41.86 0,102.83 -6.23,208.74 -23.76,312.41l571.19 77.39 -1117.67 0 127.7 134.03c-58.2,472.75 4.81,-39.04 -45.76,371.87 90.39,-62.93 170.87,-131.3 236.04,-227.22 38.4,-56.54 68.07,-118.17 90.84,-182.75l100.26 -13.59c-26.91,87.55 -64.54,171.25 -116.31,247.45 -88.46,130.21 -198.89,212.53 -325.48,295.19l-67.44 547.87z"/>
  <g id="_21WT">
   <polygon class="fil1" points="560.94,3216.67 560.94,3264.91 560.94,3360.31 560.94,3410.71 588.97,3410.71 588.97,3360.31 588.97,3264.91 588.97,3216.67 "/>
   <polygon id="1" class="fil1" points="893.24,3216.67 893.24,3250.63 893.24,3364.09 783.01,3216.67 753.91,3216.67 753.91,3263.02 753.91,3363.55 753.91,3405.86 760.11,3405.86 760.11,3363.55 760.11,3232.03 896.2,3410.71 901.33,3410.71 901.33,3252.78 901.33,3216.67 "/>
   <path id="2" class="fil1" d="M1225.27 3216.67l-16.44 41.5c-1.62,4.85 -3.78,10.51 -6.47,16.71l-43.66 104.84 -54.44 -126.13 -16.71 -36.93 -28.3 0 9.43 22.1c1.35,2.43 2.7,5.12 3.78,8.35 1.61,3.77 2.69,7.01 3.77,9.43l2.16 4.04 65.22 150.11 8.89 0 56.33 -133.94 25.33 -60.1 -8.9 0z"/>
   <polygon id="3" class="fil1" points="1416.89,3403.98 1416.89,3360.85 1416.89,3347.38 1416.89,3340.1 1416.89,3335.79 1416.89,3312.07 1437.37,3312.07 1472.95,3312.07 1472.95,3305.33 1436.57,3305.33 1416.89,3305.33 1416.89,3270.57 1416.89,3264.91 1416.89,3223.13 1442.76,3223.13 1502.33,3223.13 1502.33,3216.67 1389.13,3216.67 1389.13,3264.64 1389.13,3335.79 1389.13,3347.38 1389.13,3360.85 1389.13,3410.71 1501.79,3410.71 1501.79,3403.98 1442.22,3403.98 "/>
   <path id="4" class="fil1" d="M1740.03 3336.33c-3.5,-8.08 -8.62,-14.55 -15.63,-19.67 -6.74,-5.12 -17.52,-12.13 -32.61,-20.75 -15.9,-9.43 -26.68,-17.25 -32.34,-23.98 -5.93,-6.74 -8.35,-14.28 -7.54,-22.64 0.81,-7.28 4.04,-13.47 9.97,-18.86 5.66,-5.39 14.01,-7.55 25.06,-6.2 11.59,1.08 21.29,6.2 29.11,15.36 1.89,2.16 3.77,4.58 5.39,7.01l5.93 -4.85c-6.47,-8.63 -12.94,-14.82 -19.67,-18.06 -6.74,-3.23 -13.74,-5.39 -21.56,-6.2 -14.01,-1.35 -26.14,1.61 -36.11,9.43 -10.24,7.81 -15.9,18.33 -17.25,31.53 -1.07,8.62 0.27,16.98 3.5,25.06 3.5,8.09 8.63,14.82 15.63,20.48 7.28,5.66 17.79,12.4 31.8,20.48 15.9,8.89 26.68,16.71 32.34,23.45 5.66,7.01 7.81,15.09 6.74,24.26 -0.81,9.16 -5.39,17.25 -13.2,23.72 -8.09,6.74 -18.59,9.7 -31.53,7.81 -19.41,-3.23 -30.46,-11.32 -45.01,-32.07l-5.12 5.66c10.51,17.25 33.96,31.53 51.75,33.42 17.79,1.89 32.34,-1.62 43.93,-10.24 11.59,-8.89 18.33,-21.02 19.94,-36.93 1.08,-9.97 0,-18.86 -3.5,-27.22z"/>
   <polygon id="5" class="fil1" points="2050.77,3216.67 1862.12,3216.67 1861.85,3223.13 1913.59,3223.13 1941.89,3223.13 1941.89,3359.51 1941.89,3410.71 1969.92,3410.71 1969.92,3359.51 1969.92,3223.13 2001.72,3223.13 2050.77,3223.13 "/>
   <polygon id="6" class="fil1" points="2369.33,3410.71 2397.36,3410.71 2397.36,3358.97 2397.36,3263.56 2397.36,3216.67 2370.68,3216.67 2299.8,3377.56 2228.65,3216.67 2201.69,3216.67 2201.69,3263.56 2201.69,3348.19 2201.69,3410.71 2208.16,3410.71 2208.16,3349 2208.16,3235.26 2285.24,3410.71 2291.98,3410.71 2369.33,3235.26 2369.33,3358.97 "/>
   <polygon id="7" class="fil1" points="2587.36,3403.98 2587.36,3360.85 2587.36,3347.38 2587.36,3340.1 2587.36,3335.79 2587.36,3312.07 2607.84,3312.07 2643.42,3312.07 2643.42,3305.33 2607.04,3305.33 2587.36,3305.33 2587.36,3270.57 2587.36,3264.91 2587.36,3223.13 2613.23,3223.13 2672.8,3223.13 2672.8,3216.67 2559.6,3216.67 2559.6,3264.64 2559.6,3335.79 2559.6,3347.38 2559.6,3360.85 2559.6,3410.71 2672.26,3410.71 2672.26,3403.98 2612.69,3403.98 "/>
   <polygon id="8" class="fil1" points="2962.78,3216.67 2962.78,3250.63 2962.78,3364.09 2852.56,3216.67 2823.45,3216.67 2823.45,3263.02 2823.45,3363.55 2823.45,3405.86 2829.65,3405.86 2829.65,3363.55 2829.65,3232.03 2965.75,3410.71 2970.87,3410.71 2970.87,3252.78 2970.87,3216.67 "/>
   <polygon id="9" class="fil1" points="3315.3,3216.67 3126.65,3216.67 3126.37,3223.13 3178.12,3223.13 3206.42,3223.13 3206.42,3359.51 3206.42,3410.71 3234.45,3410.71 3234.45,3359.51 3234.45,3223.13 3266.25,3223.13 3315.3,3223.13 "/>
   <path class="fil2" d="M368.34 2860.58c0,112.46 -85.84,203.73 -184.17,203.73 -98.33,0 -184.17,-91.27 -184.17,-203.73 0,-112.46 85.83,-203.72 184.17,-203.72 98.33,0 184.17,91.27 184.17,203.72zm-68.45 -2.72c0,-106.48 -45.09,-193.94 -115.72,-193.94 -70.08,0 -115.72,87.46 -115.72,193.94 0,106.48 45.63,199.38 115.72,199.38 70.63,0 115.72,-92.9 115.72,-199.38z"/>
   <path id="1" class="fil2" d="M869.24 2667.18l0 7.6c25.53,0 65.74,16.3 65.74,78.23l0 146.69c0,46.72 1.09,149.4 -118.98,149.4 -13.04,0 -24.99,-2.17 -36.94,-8.15 -28.25,-14.67 -39.11,-44.55 -43.46,-74.97 -4.89,-25.54 -3.26,-224.37 -3.26,-248.82 0,-33.69 11.41,-42.38 40.74,-42.38l0 -7.6 -143.96 0 0 7.6c28.25,0 47.26,9.24 47.26,42.38l0 203.18c0,62.48 15.76,151.03 135.82,151.03 95.07,0 130.39,-44.55 129.84,-171.67l0 -146.14c0,-60.85 41.83,-78.78 65.73,-78.78l0 -7.6 -138.53 0z"/>
   <path id="2" class="fil2" d="M1626.01 2785.07l-11.41 0c-5.98,-49.98 -32.59,-110.83 -99.42,-110.83l-31.51 0 0 343.35c0,38.03 30.43,39.11 56.5,39.11l0 7.61 -168.96 0 0 -7.61c26.62,0 55.96,-2.17 55.96,-38.57l0 -343.89 -34.77 0c-66.82,0 -88.01,60.3 -95.61,110.83l-11.95 0 8.15 -117.89 324.87 0 8.15 117.89z"/>
   <path id="3" class="fil2" d="M2210.57 2946.42l-11.95 117.89 -295.54 0 0 -7.61c21.73,0 47.81,-0.54 47.81,-38.57l0 -304.23c0,-37.49 -29.88,-39.66 -47.81,-39.66l0 -7.06 145.59 0 0 7.6c-22.81,0 -39.11,3.26 -39.11,40.75l0 303.15c0,28.79 20.1,38.57 39.66,38.57 40.75,0 122.24,1.63 149.94,-110.83l11.41 0z"/>
   <path id="4" class="fil2" d="M2583.8 2713.35c0,-33.69 20.1,-39.12 41.29,-39.12l0 -7.06 -137.44 0 0 7.06c21.19,0 40.74,5.43 40.74,39.12l0 304.78c0,33.68 -19.56,39.11 -40.74,39.11l0 7.06 137.44 0 0 -7.06c-21.19,0 -41.29,-5.43 -41.29,-39.11l0 -304.78z"/>
   <path id="5" class="fil2" d="M3156.41 2667.18l0 7.6c26.07,0 67.36,16.3 67.36,78.78l0 218.4 -224.37 -304.78 -95.61 0 0 9.23c28.79,0 51.61,32.6 51.61,32.6l13.04 18.47 0 250.44c0,62.48 -40.2,78.78 -66.28,78.78l0 7.61 139.62 0 0 -7.61c-24.44,0 -66.28,-17.93 -66.28,-79.32l0 -240.67 236.32 327.59 18.47 0 0 -310.21c0,-61.39 41.83,-79.32 66.28,-79.32l0 -7.6 -140.16 0z"/>
   <path id="6" class="fil2" d="M3868.64 3064.31l-295 0 0 -7.06c20.1,0 48.35,-7.61 48.35,-39.11l0 -304.78c0,-38.03 -36.94,-39.12 -48.35,-39.12l0 -7.06 284.67 0 7.06 99.96 -8.15 0c-10.87,-56.5 -52.7,-92.9 -112.46,-92.9l-25.54 0c-28.25,0 -40.74,15.76 -40.74,37.49l0 148.85 24.45 0c46.72,-1.63 73.88,-34.22 73.88,-70.08l8.69 0 0 146.68 -8.69 0c0,-35.85 -29.88,-67.37 -74.97,-69l-23.36 0 0 151.57c0,35.85 39.66,37.48 40.74,37.48l35.31 0c74.97,0 108.65,-49.98 113,-104.31l8.69 0 -7.61 111.37z"/>
  </g>
 </g>
</svg>
